<svg xmlns="http://www.w3.org/2000/svg" viewBox="0 0 42.784 42.18"><g transform="translate(-934 -1257)"><circle cx="15" cy="15" r="15" transform="translate(934 1257)" fill="#a3e0dd"/><g transform="translate(-39 -1.041)" fill="none"><path d="M1001.543 1291.427a1.547 1.547 0 01-2.419 0 1.547 1.547 0 00-2.041-.341 1.547 1.547 0 01-2.288-.786 1.547 1.547 0 00-1.819-.985 1.547 1.547 0 01-1.909-1.486 1.547 1.547 0 00-1.4-1.522 1.547 1.547 0 01-1.323-2.025 1.547 1.547 0 00-.831-1.894 1.547 1.547 0 01-.594-2.345 1.547 1.547 0 00-.171-2.062 1.547 1.547 0 01.2-2.411 1.547 1.547 0 00.508-2.005 1.547 1.547 0 01.972-2.215 1.547 1.547 0 001.131-1.732 1.547 1.547 0 011.639-1.78 1.547 1.547 0 001.633-1.271 1.547 1.547 0 012.128-1.151 1.547 1.547 0 001.957-.672 1.547 1.547 0 012.386-.4 1.547 1.547 0 002.069 0 1.547 1.547 0 012.386.4 1.547 1.547 0 001.957.672 1.547 1.547 0 012.128 1.151 1.547 1.547 0 001.633 1.271 1.547 1.547 0 011.639 1.78 1.547 1.547 0 001.127 1.726 1.547 1.547 0 01.972 2.215 1.547 1.547 0 00.508 2.005 1.547 1.547 0 01.2 2.411 1.547 1.547 0 00-.171 2.069 1.547 1.547 0 01-.594 2.345 1.547 1.547 0 00-.831 1.894 1.547 1.547 0 01-1.323 2.024 1.547 1.547 0 00-1.4 1.522 1.547 1.547 0 01-1.91 1.487 1.547 1.547 0 00-1.819.985 1.547 1.547 0 01-2.288.786 1.547 1.547 0 00-2.041.341z"/><path d="M1000.333 1289.797a3.528 3.528 0 012.42-.953c.501 0 .993.106 1.446.308a3.556 3.556 0 013.446-1.865 3.54 3.54 0 012.654-2.884 3.54 3.54 0 011.574-3.59 3.54 3.54 0 01.324-3.906 3.54 3.54 0 01-.962-3.8 3.54 3.54 0 01-2.144-3.281 3.543 3.543 0 01-3.092-2.407 3.55 3.55 0 01-3.706-1.273 3.541 3.541 0 01-3.92 0 3.55 3.55 0 01-3.706 1.273 3.543 3.543 0 01-3.092 2.407 3.54 3.54 0 01-2.144 3.282 3.54 3.54 0 01-.962 3.8 3.54 3.54 0 01.324 3.905 3.54 3.54 0 011.574 3.59 3.54 3.54 0 012.654 2.884 3.556 3.556 0 013.446 1.866 3.538 3.538 0 011.446-.309c.91 0 1.768.342 2.42.953m0 2.213c-.45 0-.9-.195-1.21-.583a1.546 1.546 0 00-2.04-.34 1.547 1.547 0 01-2.288-.786 1.548 1.548 0 00-1.82-.985 1.548 1.548 0 01-1.91-1.486 1.547 1.547 0 00-1.4-1.523h-.001a1.547 1.547 0 01-1.324-2.025v-.001a1.547 1.547 0 00-.83-1.895 1.547 1.547 0 01-.595-2.345 1.547 1.547 0 00-.17-2.062v-.001a1.547 1.547 0 01.2-2.411c.657-.44.876-1.306.508-2.006-.463-.88.011-1.96.971-2.216a1.547 1.547 0 001.132-1.732v-.001a1.547 1.547 0 011.638-1.78 1.547 1.547 0 001.633-1.27v-.001a1.548 1.548 0 012.128-1.152 1.543 1.543 0 001.957-.671 1.544 1.544 0 012.387-.399 1.544 1.544 0 002.068 0 1.544 1.544 0 012.386.398h.001a1.547 1.547 0 001.957.672 1.543 1.543 0 012.128 1.152 1.547 1.547 0 001.632 1.271 1.547 1.547 0 011.639 1.78 1.547 1.547 0 001.131 1.733h.001a1.547 1.547 0 01.972 2.215v.001c-.369.7-.15 1.565.507 2.006.826.553.923 1.73.2 2.41v.002a1.547 1.547 0 00-.17 2.061v.001c.6.791.31 1.935-.594 2.345a1.547 1.547 0 00-.832 1.895 1.547 1.547 0 01-1.323 2.026 1.547 1.547 0 00-1.401 1.522 1.548 1.548 0 01-1.91 1.487 1.548 1.548 0 00-1.82.985 1.547 1.547 0 01-2.288.785 1.546 1.546 0 00-2.04.34 1.54 1.54 0 01-1.21.584z" fill="#003438"/><circle cx="7.583" cy="7.583" r="7.583" transform="translate(992.583 1270.437)" stroke-miterlimit="10" stroke="#003438" stroke-width="2"/><path d="M995.869 1290.688l-4.355 7.354-1.483-3.347-3.67.282 4.57-7.935m13.533 3.646l4.355 7.354 1.483-3.347 3.67.282-4.57-7.935" stroke="#003438" stroke-width="2"/></g></g></svg>