<svg width="46" height="48" viewBox="0 0 46 48" fill="none" xmlns="http://www.w3.org/2000/svg">
<path d="M45.9259 47.095V47.0931H45.9373V29.9247C45.9373 21.5258 44.1791 15.0559 34.6315 15.0559C30.0417 15.0559 26.9616 17.6462 25.7041 20.1019H25.5714V15.84H16.5188V47.0931H25.945V31.6177C25.945 27.5431 26.6961 23.603 31.6026 23.603C36.4371 23.603 36.5092 28.2531 36.5092 31.8791V47.095H45.9259Z" fill="white"/>
<path d="M1.16943 15.8419H10.607V47.0949H1.16943V15.8419Z" fill="white"/>
<path d="M5.88441 0.282715C2.86688 0.282715 0.418335 2.80082 0.418335 5.90409C0.418335 9.00735 2.86688 11.5781 5.88441 11.5781C8.90194 11.5781 11.3505 9.00735 11.3505 5.90409C11.3486 2.80082 8.90004 0.282715 5.88441 0.282715V0.282715Z" fill="white"/>
</svg>
